<?xml version="1.0" encoding="UTF-8"?>
<svg version="1.1" xmlns="http://www.w3.org/2000/svg"
     width="512pt" height="512pt" viewBox="0 0 512 512" preserveAspectRatio="xMidYMid meet">
  <defs>
    <!-- Baby blue → pink gradient -->
    <linearGradient id="babyPink" x1="0" y1="0" x2="1" y2="1">
      <stop offset="0%" stop-color="#A5D8FF"/>   <!-- baby blue -->
      <stop offset="100%" stop-color="#FF7AB6"/> <!-- soft pink -->
    </linearGradient>

    <!-- Gentle highlight for some depth (optional) -->
    <radialGradient id="softHi" cx="30%" cy="25%" r="60%">
      <stop offset="0%" stop-color="#FFFFFF" stop-opacity="0.16"/>
      <stop offset="100%" stop-color="#FFFFFF" stop-opacity="0"/>
    </radialGradient>
  </defs>

  <g transform="translate(0,512) scale(0.1,-0.1)" stroke="none">
    <!-- Main paths with gradient -->
    <g fill="url(#babyPink)">
      <path d="M894 3826 c-40 -18 -83 -74 -91 -119 -7 -45 638 -2476 669 -2520 24
-34 87 -67 128 -67 44 0 107 35 130 72 10 17 92 226 181 465 90 238 165 433
169 433 4 0 79 -195 169 -433 89 -239 171 -448 182 -466 21 -35 87 -70 132
-71 32 0 94 29 119 56 23 27 17 5 363 1304 238 892 315 1194 312 1223 -10 74
-82 137 -157 137 -41 0 -104 -33 -128 -67 -12 -17 -118 -399 -278 -996 -143
-537 -261 -962 -265 -955 -4 7 -74 190 -155 406 -81 217 -157 408 -168 425
-26 38 -79 67 -124 67 -37 0 -98 -28 -124 -56 -9 -11 -85 -201 -168 -424 -83
-223 -155 -411 -159 -418 -4 -7 -121 412 -265 955 -160 597 -266 979 -278 996
-41 58 -128 81 -194 53z"/>
      <path d="M3600 3358 c-132 -67 -132 -249 0 -315 24 -13 60 -23 80 -23 20 0 56
10 80 23 132 66 132 248 0 315 -24 12 -60 22 -80 22 -20 0 -56 -10 -80 -22z"/>
      <path d="M3615 2746 c-41 -18 -83 -69 -90 -109 -3 -18 -5 -172 -3 -344 3 -297
4 -313 24 -339 39 -53 71 -69 134 -69 63 0 95 16 134 69 20 26 21 40 21 366 0
326 -1 340 -21 366 -11 15 -32 37 -46 47 -33 25 -113 32 -153 13z"/>
      <path d="M3232 1669 c-47 -14 -109 -80 -122 -130 -7 -26 -10 -104 -8 -204 3
-156 4 -163 30 -202 15 -22 44 -51 65 -64 l38 -24 515 0 515 0 38 24 c21 13
50 42 65 64 27 40 27 41 27 227 0 186 0 187 -27 227 -15 22 -44 51 -65 64
l-38 24 -500 2 c-298 1 -513 -2 -533 -8z m362 -75 c14 -13 16 -48 16 -231 0
-187 -2 -219 -17 -235 -20 -22 -46 -23 -67 -2 -14 13 -16 48 -16 231 0 187 2
219 17 235 20 22 46 23 67 2z m400 0 c9 -8 16 -23 16 -31 0 -24 -30 -53 -53
-53 -66 0 -147 -80 -147 -144 0 -62 59 -139 116 -151 13 -3 35 -7 49 -10 34
-7 44 -49 19 -76 -41 -46 -176 2 -234 83 -97 134 -44 315 110 382 46 20 105
20 124 0z"/>
    </g>

    <!-- Soft highlight overlay for a gentle sheen -->
    <g fill="url(#softHi)">
      <path d="M200 4600 c0 -400 0 -400 50 -450 60 -60 120 -70 350 -60 310 14 460
-10 640 -104 160 -85 290 -222 397 -413 48 -85 66 -107 95 -120 35 -16 35 -16
35 32 0 89 -63 281 -128 393 -224 387 -579 598 -1107 662 -94 11 -187 27 -207
35 -68 29 -125 113 -125 185 0 17 -9 30 -25 38 -25 11 -25 11 -25 -198z"
            opacity="0.35"/>
    </g>
  </g>
</svg>